<?xml version="1.0" encoding="UTF-8"?>
<svg version="1.1" viewBox="0 0 972 485" xmlns="http://www.w3.org/2000/svg">
    <g fill="none" fill-rule="evenodd">
        <g transform="translate(-41 -272)" stroke="#979797">
            <g transform="translate(41.801 272)">
                <g transform="translate(0)">
                    <path d="m5.6843e-14 170.83l123.84-92.434 366.66-77.703 229.87 162.98 90.609-28.355 93.074 58.535-49.145 17.742 87.449 59.055-19.129 19.816 46.605 18.059-123.48 135.72-51.023-26.008c-17.984 17.339-26.977 26.008-26.977 26.008l-112.76-24.775-12.682 37.562-141.67-33.105 18.418-37.691-57.303-11.932 22.555-41.014-220.92-46.703 45.838-53.988-309.84-61.768z" fill="#FA6400"/>
                    <polygon points="2.8422e-14 170.83 6.0352 194.86 294 251.32 309.84 232.6" fill="#FA6400"/>
                    <path d="m264 286.58l2.166 23.852 206.03 44.84 12.719-21.988c-147.28-31.135-220.92-46.703-220.92-46.703z" fill="#FA6400"/>
                    <polygon points="462.36 374.3 462.36 399.45 508.41 409.39 519.67 386.23" fill="#FA6400"/>
                    <polygon points="501.25 423.92 501.25 449.65 641.3 483.57 642.91 457.03" fill="#FA6400"/>
                    <polygon points="641.3 483.57 655.2 444.68 655.2 418.78 642.91 457.69" fill="#FA6400"/>
                    <polygon points="655.6 419.47 655.6 444.68 766.46 469.04 769.13 444.68" fill="#FA6400"/>
                    <polygon points="769.13 444.68 794.91 418.78 791.62 444.25 766.46 469.04" fill="#FA6400"/>
                    <polygon points="794.91 418.78 847.15 444.25 841.95 471.79 791.68 445.29" fill="#FA6400"/>
                    <polygon points="847.15 443.91 970 308.89 965.57 335.64 841.95 471.79" fill="#FA6400"/>
                    <polygon points="936.13 295.14 923.23 290.46 942.36 270.65" fill="#FA6400"/>
                    <polygon points="854.91 211.59 904.05 193.85 899.81 217.39 873.27 225" fill="#FA6400"/>
                    <polygon points="19.734 166.76 128.87 83.852 132.12 105.89 46.564 170.83" fill="#0091FF"/>
                    <polygon points="128.87 83.852 482.21 9 482.21 28.023 132.12 105.89" fill="#0091FF"/>
                    <path d="m482.21 9l238.08 167.34-1.7988 22.953-236.28-171.27v-19.023z" fill="#0091FF"/>
                    <path d="m720.29 176.34c61.371-18.844 92.057-28.266 92.057-28.266l-2.5098 22.111-91.346 29.107 1.7988-22.953z" fill="#0091FF"/>
                    <path d="m812.35 148.08c42.602 27.109 63.902 40.664 63.902 40.664l-25.379 8.1953-41.033-26.748 2.5098-22.111z" fill="#0091FF"/>
                    <polygon points="822.39 206.71 819.41 229.19 904.05 289.33 919.83 274.5" fill="#0091FF"/>
                    <polygon points="904.05 291.87 899.25 316.1 936.9 331.64 954.5 313.32" fill="#0091FF"/>
                    <path d="m732.72 216.58l44.918 39.406c-60.922 47.712-91.383 71.568-91.383 71.568-70.508-5.2214-105.76-7.832-105.76-7.832-0.15886 3.9583-0.23828 5.9375-0.23828 5.9375 74.174 6.1146 111.26 9.1719 111.26 9.1719 65.477-51.253 98.215-76.879 98.215-76.879l-49.115-43.984-7.8965 2.6113z" fill="#0091FF"/>
                    <polygon points="732.72 216.58 729.69 245.18 757.79 270.65 777.64 255.99" fill="#FA6400"/>
                    <polygon points="789.73 257.96 785.37 289.33 688.63 366.92 691.52 334.83" fill="#FA6400"/>
                    <polygon points="691.52 334.83 688.63 366.92 577.75 358.91 580.25 325.66" fill="#FA6400"/>
                    <polygon points="506.91 325.66 506.91 350.88 495.16 371.28 482.21 370.01" fill="#0091FF"/>
                    <path d="m540.06 381.67v27.729l-6.3477 12.336-11.039-2.9473 17.387-37.117z" fill="#0091FF"/>
                    <path d="m333.37 226.84l1.5 26.486-25.031 30.527-21.301-2.7031c29.888-36.207 44.832-54.311 44.832-54.311z" fill="#0091FF"/>
                </g>
                <polygon points="506.91 350.88 718.49 199.3 809.84 170.19 850.87 196.94 822.39 206.71 819.41 229.19 904.05 289.33 899.25 316.1 936.9 331.64 843.32 430.71 791.68 401.7 763.82 431.56 644.75 406.16 632.49 444.68 533.71 421.73 540.06 409.39 540.06 381.67 495.16 371.28" fill="#E02020"/>
                <path d="m334.87 253.33l55.219-82.498-22.807-23.236-2.0586-45.031 12.433-4.5645 7.2109 4.5645 11.635-2.6494 6.3018 5.2168c6.7487-1.5501 10.123-2.3252 10.123-2.3252l6.2607 5.2686 8.1748-2.1787 5.8252 4.6846 12.746-2.5059 5.4404 5.1519 9.958-2.646 5.0283 4.041 9.6201-1.395 6.2354 5.4395 89.866-24.852-89.866-65.787-350.09 77.869-85.559 64.936 288.3 56.012v26.486z" fill="#F7B500"/>
                <g transform="translate(309.84 93.811)">
                    <polygon points="408.66 105.49 262.24 -2.8422e-14 172.38 24.494 191.41 41.207 191.41 47.602 80.25 77.018 25.826 157.51 0 190.04 197.07 231.85 197.07 257.06" fill="#6DD400"/>
                    <g transform="translate(55.385 4.1855)" fill="#0091FF">
                        <path d="m24.865 72.832c-15.204-15.491-22.807-23.236-22.807-23.236l-2.0586-45.031 22.409 20.876 2.4561 47.392z"/>
                        <path d="m24.865 72.193l109.86-28.51v-6.707l-13.697 3.8359v-7.3672c-11.085 3.6497-16.627 5.4746-16.627 5.4746l-0.06543-6.8418-18.041 4.8984v-7.625l-15.221 4.085v-7.543l-15.656 4.3291v-7.0752l-19.293 5.3916v-7.415l-13.564 4.0381 2.3037 47.031z"/>
                        <polygon points="36.126 21.124 13.764 0 0 4.5645 22.562 25.162"/>
                        <polygon points="36.126 28.539 53.634 22.808 31.278 1.915 19.644 4.5645 36.639 21.124"/>
                        <path d="m55.419 30.223c10.438-2.8861 15.656-4.3291 15.656-4.3291-15.581-14.058-23.372-21.087-23.372-21.087l-10.123 2.3252 17.839 16.016v7.0752z"/>
                        <polygon points="71.075 33.437 86.296 29.352 62.139 7.8965 53.634 9.8555 71.075 25.162"/>
                        <polygon points="86.296 36.977 104.34 32.078 80.104 10.778 67.964 12.581 86.296 29.352"/>
                        <polygon points="104.98 38.698 119.78 33.437 96.108 12.581 86.15 15.227 104.34 32.078"/>
                        <path d="m121.9 40.92c8.554-2.6289 12.831-3.9434 12.831-3.9434-16.206-13.985-24.31-20.978-24.31-20.978l-8.4883 1.1621 19.967 16.275v7.4834z"/>
                    </g>
                </g>
            </g>
        </g>
    </g>
</svg>