<?xml version="1.0" encoding="UTF-8"?>
<svg width="1017px" height="554px" viewBox="0 0 1017 554" version="1.1" xmlns="http://www.w3.org/2000/svg" xmlns:xlink="http://www.w3.org/1999/xlink">
    <!-- Generator: Sketch 56 (81588) - https://sketch.com -->
    <title>Basement</title>
    <desc>Created with Sketch.</desc>
    <defs>
        <linearGradient x1="50%" y1="0%" x2="50%" y2="100%" id="linearGradient-1">
            <stop stop-color="#A800D4" offset="0%"></stop>
            <stop stop-color="#F75300" offset="100%"></stop>
        </linearGradient>
        <path d="M5.19921875,259 C1.86588542,250.333333 0.532552083,235.666667 1.19921875,215 L178.199219,251 C386.550355,251.295851 537.217021,249.629184 630.199219,246 C723.181416,242.370816 820.181416,234.370816 921.199219,222 C921.199219,228 921.151042,235.950521 921.054688,245.851563 C920.95943,255.639913 907.768298,250.31839 902.673451,253.348015 C900.038044,254.915147 921.199219,279 964.199219,279 C982.199219,292 992.199219,292 992.199219,331 C994.399952,337.602201 992.731871,365.185978 992.199219,376 C991.279668,394.668932 986.016567,402.263566 954.199219,446 C903.951599,515.070865 887.58847,497.685754 864.199219,503 C840.809967,508.314246 828.486712,522.395956 812.199219,521 C795.911725,519.604044 706.669964,487.609147 686.199219,486 C665.728474,484.390853 692.91859,533.762827 630.199219,530 C567.479847,526.237173 523.662912,501.171785 508.199219,486 C492.735525,470.828215 453.48456,474.609025 452.199219,454 C451.857823,448.526097 448.327351,429.225578 452.199219,424 C457.199219,414 457.199219,414 464.199219,403 C467.994084,397.036641 450.107421,391.089053 436.199219,384 C370.451653,350.488264 287.63475,383.483889 266.199219,364 C244.763687,344.516111 288.136552,338.984171 205.199219,292 C122.261886,245.015829 26.4827775,295.41788 5.19921875,259 Z" id="path-2"></path>
        <filter x="-0.5%" y="-0.8%" width="100.9%" height="102.9%" filterUnits="objectBoundingBox" id="filter-3">
            <feGaussianBlur stdDeviation="0" in="SourceGraphic"></feGaussianBlur>
        </filter>
        <filter x="-0.8%" y="-1.8%" width="101.5%" height="104.8%" filterUnits="objectBoundingBox" id="filter-4">
            <feMorphology radius="0.5" operator="dilate" in="SourceAlpha" result="shadowSpreadOuter1"></feMorphology>
            <feOffset dx="0" dy="2" in="shadowSpreadOuter1" result="shadowOffsetOuter1"></feOffset>
            <feGaussianBlur stdDeviation="2" in="shadowOffsetOuter1" result="shadowBlurOuter1"></feGaussianBlur>
            <feComposite in="shadowBlurOuter1" in2="SourceAlpha" operator="out" result="shadowBlurOuter1"></feComposite>
            <feColorMatrix values="0 0 0 0 0   0 0 0 0 0   0 0 0 0 0  0 0 0 0.157206075 0" type="matrix" in="shadowBlurOuter1"></feColorMatrix>
        </filter>
        <linearGradient x1="50%" y1="0%" x2="50%" y2="100%" id="linearGradient-5">
            <stop stop-color="#A800D4" offset="0%"></stop>
            <stop stop-color="#F75300" offset="100%"></stop>
        </linearGradient>
        <path d="M5.19921875,231 C-16.08434,194.58212 45.7490481,125.861352 104.199219,91 C162.649389,56.1386482 212.199219,79 287.199219,46 C362.199219,13 372.199219,8 502.199219,2.84217094e-14 C642.5,19.6914063 701.920708,156.714775 733.199219,172 C764.477729,187.285225 771.034112,145.417 827.980469,159.316406 C884.926825,173.215812 914.7424,206.891218 921.054688,217.851563 C927.366975,228.811907 882.617541,218.770162 896.199219,246 C905.253671,264.153225 928.253671,275.153225 965.199219,279 C976.71295,283.867151 984.046284,290.200485 987.199219,298 C991.928621,309.699273 1004.44684,340.929135 954.199219,410 C903.951599,479.070865 887.58847,469.685754 864.199219,475 C840.809967,480.314246 828.486712,494.395956 812.199219,493 C795.911725,491.604044 706.669964,459.609147 686.199219,458 C665.728474,456.390853 692.91859,505.762827 630.199219,502 C567.479847,498.237173 523.662912,473.171785 508.199219,458 C492.735525,442.828215 453.48456,446.609025 452.199219,426 C450.913877,405.390975 501.946785,389.511736 436.199219,356 C370.451653,322.488264 287.63475,355.483889 266.199219,336 C244.763687,316.516111 288.136552,310.984171 205.199219,264 C122.261886,217.015829 26.4827775,267.41788 5.19921875,231 Z" id="path-6"></path>
        <filter x="-2.0%" y="-3.5%" width="103.9%" height="107.8%" filterUnits="objectBoundingBox" id="filter-7">
            <feGaussianBlur stdDeviation="0" in="SourceGraphic"></feGaussianBlur>
        </filter>
        <filter x="-3.0%" y="-5.6%" width="106.1%" height="111.9%" filterUnits="objectBoundingBox" id="filter-8">
            <feMorphology radius="1" operator="dilate" in="SourceAlpha" result="shadowSpreadOuter1"></feMorphology>
            <feOffset dx="0" dy="2" in="shadowSpreadOuter1" result="shadowOffsetOuter1"></feOffset>
            <feGaussianBlur stdDeviation="9" in="shadowOffsetOuter1" result="shadowBlurOuter1"></feGaussianBlur>
            <feComposite in="shadowBlurOuter1" in2="SourceAlpha" operator="out" result="shadowBlurOuter1"></feComposite>
            <feColorMatrix values="0 0 0 0 0   0 0 0 0 0   0 0 0 0 0  0 0 0 0.157206075 0" type="matrix" in="shadowBlurOuter1"></feColorMatrix>
        </filter>
        <radialGradient cx="15.4822417%" cy="-17.7380214%" fx="15.4822417%" fy="-17.7380214%" r="168.513584%" gradientTransform="translate(0.154822,-0.177380),scale(0.773891,1.000000),rotate(53.934430),translate(-0.154822,0.177380)" id="radialGradient-9">
            <stop stop-color="#FFFFFF" offset="0%"></stop>
            <stop stop-color="#817C7C" offset="100%"></stop>
        </radialGradient>
        <filter x="-1.1%" y="-1.0%" width="101.6%" height="101.7%" filterUnits="objectBoundingBox" id="filter-10">
            <feGaussianBlur stdDeviation="0" in="SourceGraphic"></feGaussianBlur>
        </filter>
        <radialGradient cx="15.4822417%" cy="-17.7380214%" fx="15.4822417%" fy="-17.7380214%" r="311.356011%" gradientTransform="translate(0.154822,-0.177380),scale(0.274216,1.000000),rotate(25.944205),translate(-0.154822,0.177380)" id="radialGradient-11">
            <stop stop-color="#FFFFFF" offset="0%"></stop>
            <stop stop-color="#817C7C" offset="100%"></stop>
        </radialGradient>
        <filter x="-0.2%" y="-0.6%" width="100.3%" height="101.3%" filterUnits="objectBoundingBox" id="filter-12">
            <feGaussianBlur stdDeviation="0" in="SourceGraphic"></feGaussianBlur>
        </filter>
        <radialGradient cx="15.4822417%" cy="-17.7380214%" fx="15.4822417%" fy="-17.7380214%" r="166.676176%" gradientTransform="translate(0.154822,-0.177380),scale(0.799304,1.000000),rotate(54.810929),translate(-0.154822,0.177380)" id="radialGradient-13">
            <stop stop-color="#FFFFFF" offset="0%"></stop>
            <stop stop-color="#817C7C" offset="100%"></stop>
        </radialGradient>
        <filter x="-0.2%" y="-0.5%" width="100.4%" height="101.0%" filterUnits="objectBoundingBox" id="filter-14">
            <feGaussianBlur stdDeviation="0" in="SourceGraphic"></feGaussianBlur>
        </filter>
        <radialGradient cx="15.4822417%" cy="-17.7380214%" fx="15.4822417%" fy="-17.7380214%" r="195.82456%" gradientTransform="translate(0.154822,-0.177380),scale(0.545719,1.000000),rotate(44.075597),translate(-0.154822,0.177380)" id="radialGradient-15">
            <stop stop-color="#FFFFFF" offset="0%"></stop>
            <stop stop-color="#817C7C" offset="100%"></stop>
        </radialGradient>
        <filter x="-0.6%" y="-1.4%" width="101.2%" height="102.7%" filterUnits="objectBoundingBox" id="filter-16">
            <feGaussianBlur stdDeviation="0" in="SourceGraphic"></feGaussianBlur>
        </filter>
        <radialGradient cx="15.4822417%" cy="-17.7380214%" fx="15.4822417%" fy="-17.7380214%" r="171.59588%" gradientTransform="translate(0.154822,-0.177380),scale(0.735700,1.000000),rotate(52.544310),translate(-0.154822,0.177380)" id="radialGradient-17">
            <stop stop-color="#FFFFFF" offset="0%"></stop>
            <stop stop-color="#817C7C" offset="100%"></stop>
        </radialGradient>
        <filter x="-0.8%" y="-1.7%" width="102.6%" height="102.9%" filterUnits="objectBoundingBox" id="filter-18">
            <feGaussianBlur stdDeviation="0" in="SourceGraphic"></feGaussianBlur>
        </filter>
        <radialGradient cx="15.4822417%" cy="-17.7380214%" fx="15.4822417%" fy="-17.7380214%" r="165.107797%" gradientTransform="translate(0.154822,-0.177380),scale(0.822846,1.000000),rotate(55.590320),translate(-0.154822,0.177380)" id="radialGradient-19">
            <stop stop-color="#FFFFFF" offset="0%"></stop>
            <stop stop-color="#817C7C" offset="100%"></stop>
        </radialGradient>
        <filter x="-0.5%" y="-1.1%" width="101.3%" height="101.8%" filterUnits="objectBoundingBox" id="filter-20">
            <feGaussianBlur stdDeviation="0" in="SourceGraphic"></feGaussianBlur>
        </filter>
        <radialGradient cx="15.4822417%" cy="-17.7380214%" fx="15.4822417%" fy="-17.7380214%" r="156.832109%" gradientTransform="translate(0.154822,-0.177380),scale(1.000000,0.996063),rotate(60.690138),translate(-0.154822,0.177380)" id="radialGradient-21">
            <stop stop-color="#FFFFFF" offset="0%"></stop>
            <stop stop-color="#817C7C" offset="100%"></stop>
        </radialGradient>
        <filter x="-1.2%" y="-1.8%" width="102.7%" height="103.2%" filterUnits="objectBoundingBox" id="filter-22">
            <feGaussianBlur stdDeviation="0" in="SourceGraphic"></feGaussianBlur>
        </filter>
        <radialGradient cx="15.4822417%" cy="-17.7380214%" fx="15.4822417%" fy="-17.7380214%" r="263.110102%" gradientTransform="translate(0.154822,-0.177380),scale(1.000000,0.541274),rotate(73.034502),translate(-0.154822,0.177380)" id="radialGradient-23">
            <stop stop-color="#FFFFFF" offset="0%"></stop>
            <stop stop-color="#817C7C" offset="100%"></stop>
        </radialGradient>
        <filter x="-3.3%" y="-4.2%" width="105.3%" height="105.4%" filterUnits="objectBoundingBox" id="filter-24">
            <feGaussianBlur stdDeviation="0" in="SourceGraphic"></feGaussianBlur>
        </filter>
        <radialGradient cx="15.4822417%" cy="-17.7380214%" fx="15.4822417%" fy="-17.7380214%" r="323.139346%" gradientTransform="translate(0.154822,-0.177380),scale(1.000000,0.433969),rotate(76.255703),translate(-0.154822,0.177380)" id="radialGradient-25">
            <stop stop-color="#FFFFFF" offset="0%"></stop>
            <stop stop-color="#817C7C" offset="100%"></stop>
        </radialGradient>
        <filter x="-4.1%" y="-5.6%" width="106.9%" height="107.1%" filterUnits="objectBoundingBox" id="filter-26">
            <feGaussianBlur stdDeviation="0" in="SourceGraphic"></feGaussianBlur>
        </filter>
        <radialGradient cx="15.4822417%" cy="-17.7380214%" fx="15.4822417%" fy="-17.7380214%" r="184.36688%" gradientTransform="translate(0.154822,-0.177380),scale(1.000000,0.812648),rotate(65.391102),translate(-0.154822,0.177380)" id="radialGradient-27">
            <stop stop-color="#FFFFFF" offset="0%"></stop>
            <stop stop-color="#817C7C" offset="100%"></stop>
        </radialGradient>
        <filter x="-2.1%" y="-2.3%" width="103.2%" height="103.2%" filterUnits="objectBoundingBox" id="filter-28">
            <feGaussianBlur stdDeviation="0" in="SourceGraphic"></feGaussianBlur>
        </filter>
    </defs>
    <g id="Page-1" stroke="none" stroke-width="1" fill="none" fill-rule="evenodd">
        <g id="Desktop" transform="translate(-7.000000, -231.000000)">
            <g id="Basement" transform="translate(24.800781, 248.000000)">
                <g id="Walls" transform="translate(0.000000, 0.000000)">
                    <g id="Outer-Wall-Sides" filter="url(#filter-3)">
                        <use fill="black" fill-opacity="1" filter="url(#filter-4)" xlink:href="#path-2"></use>
                        <use stroke="#979797" stroke-width="1" fill="url(#linearGradient-1)" fill-rule="evenodd" xlink:href="#path-2"></use>
                    </g>
                    <g id="Top-Surface" filter="url(#filter-7)">
                        <use fill="black" fill-opacity="1" filter="url(#filter-8)" xlink:href="#path-6"></use>
                        <use stroke="url(#linearGradient-5)" stroke-width="1" fill="url(#linearGradient-5)" fill-rule="evenodd" xlink:href="#path-6"></use>
                    </g>
                    <polygon id="Internal-Wall-1" stroke="#979797" fill="url(#radialGradient-9)" opacity="0.58719308" filter="url(#filter-10)" points="36.734375 190.757812 100.618247 142.228112 145.871094 107.851562 149.123047 129.892578 63.5644531 194.828125"></polygon>
                    <polygon id="Internal-Wall-2" stroke="#979797" fill="url(#radialGradient-11)" opacity="0.58719308" filter="url(#filter-12)" points="145.871094 107.851562 499.214844 33 499.214844 52.0234375 149.123047 129.892578"></polygon>
                    <path d="M499.214844,33 C657.933594,144.5625 737.292969,200.34375 737.292969,200.34375 L735.494141,223.296875 L499.214844,52.0234375 L499.214844,33 Z" id="Internal-Wall-3" stroke="#979797" fill="url(#radialGradient-13)" opacity="0.58719308" filter="url(#filter-14)"></path>
                    <path d="M737.292969,200.34375 C798.664063,181.5 829.349609,172.078125 829.349609,172.078125 L826.839844,194.189453 L735.494141,223.296875 L737.292969,200.34375 Z" id="Internal-Wall-4" stroke="#979797" fill="url(#radialGradient-15)" opacity="0.58719308" filter="url(#filter-16)"></path>
                    <path d="M829.349609,172.078125 C871.951172,199.1875 893.251953,212.742188 893.251953,212.742188 L867.873047,220.9375 L826.839844,194.189453 L829.349609,172.078125 Z" id="Internal-Wall-5" stroke="#979797" fill="url(#radialGradient-17)" opacity="0.58719308" filter="url(#filter-18)"></path>
                    <polygon id="Internal-Wall-6" stroke="#979797" fill="url(#radialGradient-19)" opacity="0.58719308" filter="url(#filter-20)" points="839.386719 230.707031 836.414062 253.191406 921.054688 313.333984 936.830078 298.498047"></polygon>
                    <polygon id="Internal-Wall-7" stroke="#979797" fill="url(#radialGradient-21)" opacity="0.58719308" filter="url(#filter-22)" points="921.054688 315.865234 916.25 340.097656 949.199219 363 963.199219 345"></polygon>
                    <polygon id="Internal-Wall-12" stroke="#979797" fill="url(#radialGradient-23)" opacity="0.58719308" filter="url(#filter-24)" points="523.90625 349.662109 523.90625 374.875 512.160156 395.279297 499.214844 394.007812"></polygon>
                    <path d="M557.0625,405.666016 C557.0625,424.151693 557.0625,433.394531 557.0625,433.394531 L550.714844,445.730469 L539.675781,442.783203 L557.0625,405.666016 Z" id="Internal-Wall-13" stroke="#979797" fill="url(#radialGradient-25)" opacity="0.58719308" filter="url(#filter-26)"></path>
                    <path d="M350.369141,250.839844 L351.869141,277.326172 L326.837891,307.853516 L305.537109,305.150391 C335.42513,268.943359 350.369141,250.839844 350.369141,250.839844 Z" id="Internal-Wall-14" stroke="#979797" fill="url(#radialGradient-27)" opacity="0.58719308" filter="url(#filter-28)"></path>
                </g>
                <g id="Lands" transform="translate(63.564453, 52.023438)" fill="#FFFFFF" stroke="#979797">
                    <polygon id="Horror" points="460.341797 322.851562 671.929688 171.273438 763.275391 142.166016 804.308594 168.914062 775.822266 178.683594 772.849609 201.167969 857.490234 261.310547 852.685547 288.074219 885.634766 310.976562 796.753906 402.685547 745.115234 373.674805 717.255859 403.533203 598.183594 378.136719 585.921875 416.65625 487.150391 393.707031 493.498047 381.371094 493.498047 353.642578 448.595703 343.255859"></polygon>
                    <path d="M288.304688,225.302734 L343.523438,142.804688 L320.716797,119.568359 L318.658203,74.5371094 L331.09082,69.9726562 L338.301758,74.5371094 L349.936523,71.8876953 L356.238281,77.1044922 C362.986979,75.554362 366.361328,74.7792969 366.361328,74.7792969 L372.62207,80.0478516 L380.796875,77.8691406 L386.62207,82.5537109 L399.368164,80.0478516 L404.808594,85.199707 C411.447266,83.4357096 414.766602,82.5537109 414.766602,82.5537109 L419.794922,86.5947266 L429.415039,85.199707 L435.650391,90.6391602 L525.516602,65.7871094 L435.650391,0 L85.5585938,77.8691406 L0,142.804688 L288.304688,198.816406 L288.304688,225.302734 Z" id="History-"></path>
                    <g id="Fantasy" transform="translate(263.273438, 65.787109)">
                        <polygon id="Fantasy-World" points="408.65625 105.486328 262.243164 -2.84217094e-14 172.376953 24.4941406 191.410156 41.2070312 191.410156 47.6015625 80.25 77.0175781 25.8261719 157.511719 0 190.042969 197.068359 231.851562 197.068359 257.064453"></polygon>
                        <g id="Stairs" transform="translate(55.384766, 4.185547)">
                            <path d="M24.8652344,72.8320313 C9.66080729,57.3411458 2.05859375,49.5957031 2.05859375,49.5957031 L0,4.56445312 L22.4091797,25.4404297 L24.8652344,72.8320313 Z" id="StairBack"></path>
                            <path d="M24.8652344,72.1933594 L134.726562,43.6835938 C134.726562,39.2122396 134.726562,36.9765625 134.726562,36.9765625 L121.029297,40.8125 C121.029297,35.9010417 121.029297,33.4453125 121.029297,33.4453125 C109.944661,37.0950521 104.402344,38.9199219 104.402344,38.9199219 L104.336914,32.078125 L86.2958984,36.9765625 C86.2958984,31.8932292 86.2958984,29.3515625 86.2958984,29.3515625 L71.0751953,33.4365234 C71.0751953,28.4078776 71.0751953,25.8935547 71.0751953,25.8935547 L55.4189453,30.2226562 C55.4189453,25.5058594 55.4189453,23.1474609 55.4189453,23.1474609 L36.1259766,28.5390625 C36.1259766,23.5957031 36.1259766,21.1240234 36.1259766,21.1240234 L22.5615234,25.1621094 L24.8652344,72.1933594 Z" id="StairSide"></path>
                            <polygon id="StairTop1" points="36.1259766 21.1240234 13.7636719 0 0 4.56445312 22.5615234 25.1621094"></polygon>
                            <polygon id="StairTop2" points="36.1259766 28.5390625 53.6337891 22.8076172 31.2783203 1.91503906 19.6435547 4.56445312 36.6386719 21.1240234"></polygon>
                            <path d="M55.4189453,30.2226562 C65.8564453,27.3365885 71.0751953,25.8935547 71.0751953,25.8935547 C55.4938151,11.835612 47.703125,4.80664062 47.703125,4.80664062 L37.5800781,7.13183594 L55.4189453,23.1474609 L55.4189453,30.2226562 Z" id="StairTop3"></path>
                            <polygon id="StairTop4" points="71.0751953 33.4365234 86.2958984 29.3515625 62.1386719 7.89648437 53.6337891 9.85546875 71.0751953 25.1621094"></polygon>
                            <polygon id="StairTop5" points="86.2958984 36.9765625 104.336914 32.078125 80.1035156 10.7783203 67.9638672 12.5810547 86.2958984 29.3515625"></polygon>
                            <polygon id="StairTop6" points="104.976562 38.6982422 119.777344 33.4365234 96.1083984 12.5810547 86.1503906 15.2270508 104.336914 32.078125"></polygon>
                            <path d="M121.895508,40.9199219 C130.449544,38.2910156 134.726562,36.9765625 134.726562,36.9765625 C118.520182,22.9915365 110.416992,15.9990234 110.416992,15.9990234 L101.928711,17.1611328 L121.895508,33.4365234 L121.895508,40.9199219 Z" id="StairTop7"></path>
                        </g>
                    </g>
                </g>
            </g>
        </g>
    </g>
</svg>