<?xml version="1.0" encoding="UTF-8"?>
<svg version="1.1" viewBox="0 0 976 347" xmlns="http://www.w3.org/2000/svg">
    <title>firstFloor</title>
    <desc>Created with Sketch.</desc>
    <g fill="none" fill-rule="evenodd">
        <g transform="translate(-22 -352)" stroke="#979797">
            <g transform="translate(23.156 353.03)">
                <path d="m100.23 97.518l105.03 15.774 171.58-72.462 200.08-40.793 345.91 198.19c26.677 3.8776 43.387 12.586 50.129 26.125 4.4792 14.368-8.5024 22.533-38.945 24.494l-79.225 69.656-854.8-152.89 100.23-68.088z" fill="#CFFFB0"/>
                <!-- Stairs -->
                <polygon points="468.2 161.61 451.21 146.45 463.81 141.61 483.21 158.81" fill="#fff"/>
                <polygon points="471.78 148.71 480.6 145.63 493.81 156.26 483.21 158.97" fill="#fff"/>
                <polygon points="487.45 151.3 495.48 148.6 502.47 153.64 492.84 155.78" fill="#fff"/>
                <!-- Stairwell -->
                <polyline points="450.84 146.43 446.53 142.77 564.16 113.29 589.33 131.22 502.47 153.64 495.48 148.6 487.45 151.3 480.6 145.63 471.78 148.6 464.49 142.77" fill="#474747" fill-opacity=".85"/>
                <!-- Walls -->
                <polygon points="45.072 165.61 106.82 123.43 103.09 104.44 18.228 162.87" fill="#CFFFB0"/>
                <polygon points="106.82 123.43 208.29 138.52 205.27 119.43 103.09 104.44" fill="#CFFFB0"/>
                <polygon points="208.29 138.52 382.36 65.207 382.36 45.152 205.27 119.43" fill="#CFFFB0"/>
                <polygon points="382.36 65.207 571.99 24.547 571.99 6 382.36 45.152" fill="#CFFFB0"/>
                <polygon points="571.99 24.547 913.43 227.32 916.63 203.91 571.99 6" fill="#CFFFB0"/>
                <path d="m913.43 227.32l3.1953-23.414c25.329 6.1836 37.993 13.988 37.993 23.414 0 5.8958-4.4515 9.7174-13.354 11.465 0-1.873-3.8363-4.4813-11.509-7.8247-6.1803-1.1598-11.622-2.3732-16.325-3.6401z" fill="#CFFFB0"/>
                <polygon points="-5.6843e-14 165.61 5.707 189.31 849.86 345.25 854.8 318.5" fill="#CFFFB0"/>
                <polygon points="854.8 318.5 849.86 345.25 929.31 272.25 934.03 248.84" fill="#CFFFB0"/>
                <path d="m973.83 230.96l-6.4555 29.524c-4.4792 5.4043-11.093 9.3262-19.841 11.766-7.0449 1.3281-13.121 1.3281-18.228 0l4.7173-23.41c8.7354 0 16.766-1.347 24.093-4.041 6.0607-2.7222 11.298-7.335 15.713-13.838z" fill="#CFFFB0"/>
                <g transform="translate(45.072 24.547)" fill="#fff">
                    <!-- Kids World -->
                    <polygon class="room" points="401.46 116.92 337.29 40.66 526.91 -1.4211e-14 747.02 131.23 544.26 106.67 519.09 88.745"/>
                    <!-- Science World -->
                    <path class="room" d="m401.85 117.85l-64.562-77.188-174.07 73.312c-67.648-10.062-101.47-15.094-101.47-15.094l-61.746 42.18 300.63 52.289 112.87-52.857 8.6484-3.4229-20.289-19.219z"/>
                    <!-- Mirror Maze -->
                    <polygon class="room" points="413.49 140.49 442.38 132.93 468.01 224.29 300.63 193.35"/>
                    <!-- Movie Stars -->
                    <polygon class="room" points="442.38 132.93 544.26 106.67 747.02 131.23 706.59 265.31 468.01 224.29"/>
                    <!-- Literature -->
                    <path class="room" d="m706.59 265.31l40.43-134.08 121.34 71.546c9.6979 2.4268 15.856 4.1527 18.475 5.1777 2.6185 1.0251 5.7383 3.1208 9.3594 6.2871-1.8255 1.3711-3.7594 2.0566-5.8018 2.0566h-8.3408c-4.4902 0-9.054-0.33984-13.691-1.0195l-75.857 66.324-85.908-16.287z"/>
                </g>
            </g>
        </g>
    </g>
</svg>

