<?xml version="1.0" encoding="UTF-8"?>
<svg width="976px" height="347px" viewBox="0 0 976 347" version="1.1" xmlns="http://www.w3.org/2000/svg" xmlns:xlink="http://www.w3.org/1999/xlink">
    <!-- Generator: Sketch 56 (81588) - https://sketch.com -->
    <title>firstFloor</title>
    <desc>Created with Sketch.</desc>
    <g id="Page-1" stroke="none" stroke-width="1" fill="none" fill-rule="evenodd">
        <g id="Desktop" transform="translate(-22.000000, -352.000000)" stroke="#979797">
            <g id="firstFloor" transform="translate(23.156250, 353.025391)">
                <g id="Walls">
                    <path d="M100.234375,97.5175781 L205.265625,113.291992 L376.847656,40.8300781 L576.927734,0.037109375 L922.841797,198.222656 C949.51888,202.10026 966.228516,210.808594 972.970703,224.347656 C977.44987,238.716146 964.468262,246.880859 934.025879,248.841797 L854.800781,318.498047 L0,165.605469 L100.234375,97.5175781 Z" id="Outer-Wall-Top" fill="#CFFFB0"></path>
                    <polygon id="Stair1" fill="#FFFFFF" points="468.200845 161.614258 451.212891 146.447669 463.811961 141.614258 483.212891 158.813076"></polygon>
                    <polygon id="Stair2" fill="#FFFFFF" points="471.779297 148.709961 480.597656 145.632812 493.810547 156.262695 483.212891 158.974609"></polygon>
                    <polygon id="Stair3" fill="#FFFFFF" points="487.449219 151.302246 495.478516 148.598633 502.472656 153.641602 492.836426 155.776367"></polygon>
                    <polyline id="Stairwell" fill-opacity="0.85" fill="#474747" points="450.838244 146.426083 446.530273 142.767578 564.162109 113.291992 589.333008 131.216797 502.472656 153.641602 495.478516 148.598633 487.449219 151.302246 480.597656 145.632812 471.779297 148.598633 464.486328 142.767578"></polyline>
                    <polygon id="WallInternal1" fill="#CFFFB0" points="45.0722656 165.605469 106.818359 123.425781 103.091797 104.443359 18.2275391 162.871094"></polygon>
                    <polygon id="WallInternal2" fill="#CFFFB0" points="106.818359 123.425781 208.291016 138.519531 205.265625 119.433594 103.091797 104.443359"></polygon>
                    <polygon id="WallInternal3" fill="#CFFFB0" points="208.291016 138.519531 382.361328 65.2070312 382.361328 45.1523438 205.265625 119.433594"></polygon>
                    <polygon id="WallInternal4" fill="#CFFFB0" points="382.361328 65.2070312 571.986328 24.546875 571.986328 6 382.361328 45.1523437"></polygon>
                    <polygon id="WallInternal5" fill="#CFFFB0" points="571.986328 24.546875 913.431641 227.322266 916.626953 203.908203 571.986328 6"></polygon>
                    <path d="M913.431641,227.322266 L916.626953,203.908203 C941.955729,210.091797 954.620117,217.896484 954.620117,227.322266 C954.620117,233.218099 950.16862,237.039714 941.265625,238.787109 C941.265625,236.914063 937.429362,234.305827 929.756836,230.962402 C923.576497,229.802572 918.134766,228.589193 913.431641,227.322266 Z" id="WallInternalCurved" fill="#CFFFB0"></path>
                    <polygon id="WallOuter" fill="#CFFFB0" points="-5.68434189e-14 165.605469 5.70703125 189.306641 849.857422 345.246094 854.800781 318.498047"></polygon>
                    <polygon id="WallOuter2" fill="#CFFFB0" points="854.800781 318.498047 849.857422 345.246094 929.308594 272.251953 934.025879 248.841797"></polygon>
                    <path d="M973.832475,230.962402 L967.376953,260.486328 C962.897786,265.890625 956.28418,269.8125 947.536133,272.251953 C940.491211,273.580078 934.415365,273.580078 929.308594,272.251953 L934.025879,248.841797 C942.76123,248.841797 950.792318,247.494792 958.119141,244.800781 C964.179857,242.078571 969.417635,237.465778 973.832475,230.962402 Z" id="OuterWallCurved" fill="#CFFFB0"></path>
                </g>
                <g id="Lands" transform="translate(45.072266, 24.546875)" fill="#FFFFFF">
                    <polygon id="KidsWorld" points="401.458008 116.915039 337.289062 40.6601562 526.914063 -1.42108547e-14 747.023438 131.229492 544.260742 106.669922 519.089844 88.7451172"></polygon>
                    <path d="M401.851563,117.848633 L337.289063,40.6601563 L163.21875,113.972656 C95.5703125,103.910156 61.7460937,98.8789063 61.7460937,98.8789063 L0,141.058594 L300.626953,193.347656 L413.492188,140.490234 L422.140625,137.067383 L401.851563,117.848633 Z" id="ScienceWorld"></path>
                    <polygon id="MirrorMaze" points="413.492188 140.490234 442.376953 132.933594 468.007813 224.294922 300.626953 193.347656"></polygon>
                    <polygon id="MovieStars" points="442.376953 132.933594 544.260742 106.669922 747.023438 131.229492 706.59375 265.314453 468.007813 224.294922"></polygon>
                    <path d="M706.59375,265.314453 L747.023437,131.229492 L868.359375,202.775391 C878.057292,205.202148 884.215495,206.92806 886.833984,207.953125 C889.452474,208.97819 892.572266,211.073893 896.193359,214.240234 C894.367839,215.611328 892.433919,216.296875 890.391602,216.296875 C887.328125,216.296875 884.501282,216.296875 882.050781,216.296875 C877.560547,216.296875 872.996745,215.957031 868.359375,215.277344 L792.501953,281.601562 L706.59375,265.314453 Z" id="Writers"></path>
                </g>
            </g>
        </g>
    </g>
</svg>