<?xml version="1.0" encoding="UTF-8"?>
<svg version="1.1" viewBox="0 0 751 515" xmlns="http://www.w3.org/2000/svg">
    <title>Areas</title>
    <desc>Created with Sketch.</desc>
    <g fill="none" fill-rule="evenodd">
        <g transform="translate(-143 -274)" stroke="#979797">
            <g transform="translate(143.38 274.4)">
                <path d="m464.22 149.32l-206.21 212.73 285.78 108.1 49.418-83.566c16.177 5.5599 24.266 8.3398 24.266 8.3398l-2.2422 43.984 86.23-156.32-18.614-5.3457 3.501-41.85 15.113-21.899-237.24-64.167z" fill="#F7B500"/>
                <polygon points="464.22 149.32 393.69 221.96 323.73 199.46 323.73 188.87 300.95 183.43 300.95 174.14 278.75 167.49 278.75 158 262.44 153.75 262.44 144.16 243.97 139.01 243.97 129.31 223.44 124.5 223.44 113.36 207.64 110.95 206.21 100.33 189.25 97.024 145.62 129.26 152.89 196.03 141.35 204.78 50.234 207.34 84.238 55.262 342.81 44 495.8 81.227 464.22 113.13" fill="#FF00FE"/>
                <g transform="translate(34 97.024)" fill="#6DD400">
                    <polygon points="16.291 111.24 107.44 107.37 118.89 99.009 248.18 140.57 288.77 102.13 359.69 124.94 224.01 265.02 0 182.01"/>
                    <g transform="translate(110.73)">
                        <polygon points="9.123 99.434 137.45 140.57 137.45 129.1 115.35 121.79 114.97 113.91 92.542 107.07 92.542 97.504 74.527 92.287 74.527 82.345 55.529 77.148 55.529 67.115 34.056 61.216 32.557 50.654 17.633 47.233 16.016 36.189 -1.4211e-14 32.239"/>
                        <polygon points="137.45 141.07 178.04 102.13 178.04 91.845 137.45 129.1"/>
                        <polygon points="178.04 91.845 156.22 86.406 115.35 121.79 137.45 129.1"/>
                        <polygon points="115.35 113.23 115.35 121.79 156.22 86.406 156.22 77.333"/>
                        <polygon points="115.35 113.23 92.542 107.07 135.79 70.462 154.79 77.333"/>
                        <polygon points="92.542 107.07 92.542 96.134 134.02 60.978 134.02 70.462"/>
                        <polygon points="75.079 91.845 92.542 97.504 134.02 60.978 117.7 56.728"/>
                        <polygon points="74.527 82.345 75.079 91.845 117.7 56.728 117.7 46.636"/>
                        <polygon points="55.605 77.116 74.527 82.345 117.7 46.636 99.236 41.988"/>
                        <polygon points="55.605 66.795 55.605 77.116 99.236 41.988 99.236 32.239"/>
                        <polygon points="32.557 60.978 55.605 66.795 99.236 32.239 78.712 27.473"/>
                        <polygon points="32.557 50.654 32.557 60.978 77.421 27.473 77.421 16.332"/>
                        <polygon points="18.247 46.636 32.557 50.654 77.421 16.332 62.912 13.923"/>
                        <polygon points="16.016 36.189 18.247 46.636 61.476 13.923 61.476 3.3027"/>
                        <polygon points="-3.5527e-15 32.239 16.016 36.189 61.476 3.3027 44.522 1.0658e-14"/>
                    </g>
                </g>
                <g transform="translate(.54492 .62109)" fill="#B620E0">
                    <path d="m705.87 244.36l42.898-72.969-250.56-64.898 55.102-57.785-203.32-48.703-290.43 10.918-59.553 244.8 572.03 213.8 44.898-75.227-24.266-8.3398-30.312 51.758-537.42-193.36c34.047-148.69 51.07-223.03 51.07-223.03 176.84-6.9375 265.25-10.406 265.25-10.406l180.71 42.609-58.285 58.98 255.55 67.523-34.652 58.372 21.293 5.9521z"/>
                    <polygon points="0 255.72 3.6602 293.49 569.41 511.48 572.03 469.52"/>
                    <path d="m572.03 469.52c29.932-50.151 44.898-75.227 44.898-75.227-1.4948 29.323-2.2422 43.984-2.2422 43.984l-44.523 74.801 1.8672-43.559z"/>
                    <path d="m748.77 171.39l-5.0703 38.129-42.781 72.441 4.9531-37.602c28.599-48.646 42.898-72.969 42.898-72.969z"/>
                    <polygon points="705.87 244.36 684.58 238.4 682.3 276.61 700.92 281.96"/>
                    <polygon points="463.68 112.51 463.68 148.7 700.92 212.86 719.23 180.03"/>
                    <polygon points="553.31 48.703 553.31 80.605 523.47 112.51 498.21 106.49"/>
                    <path d="m521.96 53.527c-120.47-28.406-180.71-42.609-180.71-42.609l1.0117 32.461 152.99 37.227 26.707-27.078z"/>
                    <polygon points="341.25 10.918 342.27 43.379 83.693 54.641 76 21.324"/>
                    <polygon points="76 21.324 41.891 173.15 49.746 207.64 83.693 54.641"/>
                    <polygon points="41.333 173.15 48.93 207.72 40.455 250.17 24.93 244.52"/>
                </g>
            </g>
        </g>
    </g>
</svg>