<?xml version="1.0" encoding="UTF-8"?>
<svg width="751px" height="515px" viewBox="0 0 751 515" version="1.1" xmlns="http://www.w3.org/2000/svg" xmlns:xlink="http://www.w3.org/1999/xlink">
    <!-- Generator: Sketch 56 (81588) - https://sketch.com -->
    <title>Areas</title>
    <desc>Created with Sketch.</desc>
    <g id="Page-1" stroke="none" stroke-width="1" fill="none" fill-rule="evenodd">
        <g id="Desktop" transform="translate(-143.000000, -274.000000)" stroke="#979797">
            <g id="Areas" transform="translate(143.376953, 274.402344)">
                <path d="M464.224609,149.316406 L258.010254,362.042969 L543.791016,470.144531 L593.208984,386.578125 C609.386068,392.138021 617.474609,394.917969 617.474609,394.917969 L615.232422,438.902344 L701.462891,282.578125 L682.848633,277.232422 L686.349609,235.382812 L701.462891,213.483398 L464.224609,149.316406 Z" id="Entrance-Area" fill="#F7B500"></path>
                <polygon id="Start" fill="#6DD400" points="50.2910156 208.265625 141.441406 204.396484 152.892578 196.033203 282.183594 237.597656 322.771484 199.150391 393.6875 221.962891 258.010254 362.042969 34 279.038086"></polygon>
                <polygon id="Gift-Shop" fill="#FF00FE" points="464.224609 149.316406 393.6875 221.962891 323.731445 199.462891 323.731445 188.869141 300.950195 183.430605 300.950195 174.140137 278.74707 167.486328 278.74707 158.001953 262.435547 153.751953 262.435547 144.158203 243.967773 139.012695 243.967773 129.312988 223.443359 124.49707 223.443359 113.356445 207.643555 110.947266 206.207031 100.327148 189.253906 97.0244141 145.615234 129.263553 152.892578 196.033203 141.353516 204.776826 50.2338867 207.34082 84.2382812 55.2617188 342.810547 44 495.802734 81.2265625 464.224609 113.128906"></polygon>
                <g id="Stairs" transform="translate(144.731445, 97.024414)" fill="#6DD400">
                    <polygon id="Stairs-Side" points="9.12304687 99.4335938 137.452148 140.573242 137.452148 129.098633 115.353516 121.788086 114.969727 113.905273 92.5419922 107.06543 92.5419922 97.5039063 74.5273438 92.2871094 74.5273438 82.3447266 55.5292969 77.1484375 55.5292969 67.1152344 34.0556641 61.2158203 32.5566406 50.6542969 17.6328125 47.2333984 16.015625 36.1894531 -1.42108547e-14 32.2392578"></polygon>
                    <polygon id="Stair-1" points="137.452148 141.073242 178.040039 102.125977 178.040039 91.8447266 137.452148 129.098633"></polygon>
                    <polygon id="Stair-1-top" points="178.040039 91.8447266 156.21875 86.4061906 115.353516 121.788086 137.452148 129.098633"></polygon>
                    <polygon id="Stair-2" points="115.353516 113.228516 115.353516 121.788086 156.21875 86.4061906 156.21875 77.3330078"></polygon>
                    <polygon id="Stair-2-top" points="115.353516 113.228516 92.5419922 107.06543 135.786133 70.4619141 154.785156 77.3330078"></polygon>
                    <polygon id="Stair-3" points="92.5419922 107.06543 92.5419922 96.1337891 134.015625 60.9775391 134.015625 70.4619141"></polygon>
                    <polygon id="Stair-3-top" points="75.0791016 91.8452148 92.5419922 97.5039063 134.015625 60.9775391 117.704102 56.7275391"></polygon>
                    <polygon id="Stair-4" points="74.5273438 82.3447266 75.0791016 91.8452148 117.704102 56.7275391 117.704102 46.6357422"></polygon>
                    <polygon id="Stair-4-top" points="55.6054688 77.1157227 74.5273438 82.3447266 117.704102 46.6357422 99.2363281 41.9882813"></polygon>
                    <polygon id="Stair-5" points="55.6054688 66.7949219 55.6054688 77.1157227 99.2363281 41.9882813 99.2363281 32.239139"></polygon>
                    <polygon id="Stair-5-top" points="32.5566406 60.9775391 55.6054687 66.7949219 99.2363281 32.239139 78.7119141 27.4726562"></polygon>
                    <polygon id="Stair-6" points="32.5566406 50.6542969 32.5566406 60.9775391 77.4208984 27.4726563 77.4208984 16.3320313"></polygon>
                    <polygon id="Stair-6-top" points="18.2470703 46.6357422 32.5566406 50.6542969 77.4208984 16.3320312 62.9121094 13.9228516"></polygon>
                    <polygon id="Stair-7" points="16.015625 36.1894531 18.2470703 46.6357422 61.4755859 13.9228516 61.4755859 3.30273437"></polygon>
                    <polygon id="Stair-7-top" points="-3.55271368e-15 32.239139 16.015625 36.1894531 61.4755859 3.30273438 44.5224609 1.0658141e-14"></polygon>
                </g>
                <g id="Walls" transform="translate(0.544922, 0.621094)" fill="#B620E0">
                    <path d="M705.871094,244.355469 L748.769531,171.386719 L498.207031,106.488281 L553.308594,48.703125 L349.984375,0 L59.5527344,10.9179687 L0,255.71875 L572.03125,469.523438 L616.929688,394.296875 L592.664063,385.957031 L562.351563,437.714844 L24.9296875,244.355469 C58.9765625,95.6679687 76,21.3242187 76,21.3242187 C252.835938,14.3867187 341.253906,10.9179687 341.253906,10.9179687 L521.964844,53.5273437 L463.679688,112.507812 L719.230469,180.03125 L684.578125,238.40332 L705.871094,244.355469 Z" id="Wall-Top"></path>
                    <polygon id="Lower-Wall" points="0 255.71875 3.66015625 293.488281 569.414062 511.484375 572.03125 469.523437"></polygon>
                    <path d="M572.03125,469.523438 C601.963542,419.372396 616.929688,394.296875 616.929688,394.296875 C615.434896,423.619792 614.6875,438.28125 614.6875,438.28125 L570.164062,513.082031 L572.03125,469.523438 Z" id="Entrance-Wall"></path>
                    <path d="M748.769531,171.386719 L743.699219,209.515625 L700.917969,281.957031 L705.871094,244.355469 C734.470052,195.709635 748.769531,171.386719 748.769531,171.386719 Z" id="Top-Entrance-Wall"></path>
                    <polygon id="Entrance-Side-Wall" points="705.871094 244.355469 684.578125 238.40332 682.303711 276.611328 700.917969 281.957031"></polygon>
                    <polygon id="Internal-Wall-Entrance" points="463.679688 112.507812 463.679688 148.695312 700.917969 212.862305 719.230469 180.03125"></polygon>
                    <polygon id="Top-External-Wall" points="553.308594 48.703125 553.308594 80.6054688 523.470703 112.507813 498.207031 106.488281"></polygon>
                    <path d="M521.964844,53.5273438 C401.490885,25.1210938 341.253906,10.9179688 341.253906,10.9179688 L342.265625,43.3789062 L495.257812,80.6054688 L521.964844,53.5273438 Z" id="Internal-Top-Gift"></path>
                    <polygon id="Internal-Mid-Gift" points="341.253906 10.9179687 342.265625 43.3789063 83.6933594 54.640625 76 21.3242188"></polygon>
                    <polygon id="Internal-Left-Gift" points="76 21.3242188 41.890625 173.148438 49.7460938 207.644531 83.6933594 54.640625"></polygon>
                    <polygon id="Start-Internal-Wall" points="41.3326467 173.148438 48.9296875 207.723172 40.4550781 250.169922 24.9296875 244.5178"></polygon>
                </g>
            </g>
        </g>
    </g>
</svg>