<?xml version="1.0" encoding="UTF-8"?>
<svg width="825px" height="649px" viewBox="0 0 825 649" version="1.1" xmlns="http://www.w3.org/2000/svg" xmlns:xlink="http://www.w3.org/1999/xlink">
    <!-- Generator: Sketch 56 (81588) - https://sketch.com -->
    <title>WaxModal</title>
    <desc>Created with Sketch.</desc>
    <defs>
        <filter x="-1.5%" y="-1.9%" width="102.9%" height="103.7%" filterUnits="objectBoundingBox" id="filter-1">
            <feOffset dx="0" dy="2" in="SourceAlpha" result="shadowOffsetOuter1"></feOffset>
            <feGaussianBlur stdDeviation="2" in="shadowOffsetOuter1" result="shadowBlurOuter1"></feGaussianBlur>
            <feColorMatrix values="0 0 0 0 0   0 0 0 0 0   0 0 0 0 0  0 0 0 0.5 0" type="matrix" in="shadowBlurOuter1" result="shadowMatrixOuter1"></feColorMatrix>
            <feMerge>
                <feMergeNode in="shadowMatrixOuter1"></feMergeNode>
                <feMergeNode in="SourceGraphic"></feMergeNode>
            </feMerge>
        </filter>
    </defs>
    <g id="Page-1" stroke="none" stroke-width="1" fill="none" fill-rule="evenodd">
        <g id="Desktop" transform="translate(-109.000000, -176.000000)">
            <g id="WaxModal" filter="url(#filter-1)" transform="translate(113.000000, 178.836974)">
                <path d="M17,11.163026 C39.7463696,8.81221574 65.9109889,15.9500436 95.2578125,16.0142141 C121.039327,16.0705885 149.69065,9.35582246 174.966044,3.93119348 C199.325959,-1.29695438 232.652456,3.02256495 259.261719,9.96913094 C285.870982,16.9156969 320.066575,8.48642629 333.851563,11.163026 C349.752644,14.2505029 428.65625,25.163026 462.070622,16.0142141 C474.652141,12.5694103 518.124515,15.1905457 571.453125,9.14546257 C585.350432,7.57012847 594.691406,22.8829656 639.664063,16.0142141 C684.636719,9.14546257 701.792114,-11.9627508 748.538439,9.14546257 C763.75,16.0142141 756.84375,-3.59478648 789,11.163026 C821.15625,25.9208385 805.507813,38.600526 789,49.0145885 C784.292252,51.9845024 790.614394,83.229643 789,118.94037 C788.088839,139.095444 779.619041,160.032684 777.599039,179.688601 C776.544983,189.945244 788.586275,194.307833 789,220.120057 C789.118087,227.487513 792.255858,247.258738 789,256.327089 C777.599039,288.081513 783.554456,327.832436 789,351.584901 C791.475452,362.382369 808.359828,375.023622 792.979433,408.255434 C786.542669,422.163096 777.599039,446.09662 784.223098,489.95531 C787.834365,513.865947 835.80222,558.960148 789,576.163026 C758.219685,587.476806 715.072027,572.520212 681.90625,576.163026 C650.489454,579.613738 629.112643,602.013905 597.746094,600.072291 C562.738592,597.905299 528.880172,578.223811 496.292969,576.163026 C470.302084,574.519386 444.958453,589.358766 421.661364,594.811886 C395.940452,600.832347 347.251327,573.730539 303.367188,576.163026 C274.812694,577.745794 252.569017,616.841427 225.368061,600.072291 C206.957031,588.722062 162.84375,576.163026 116.296894,588.722062 C88.7711231,596.148926 47.265625,565.952089 9.9140625,576.163026 C-9.0546875,522.09662 15.3927047,435.573182 20.0091994,399.268043 C31.4626889,309.195259 19.240653,247.072673 15.3927047,228.46549 C10.2070312,203.389589 17.9066726,168.230274 20.174223,160.263365 C25.34375,142.100526 21.8880285,74.36503 20.174223,67.1122448 C13.455473,38.678651 -1.9453125,57.163026 17,11.163026 Z" id="Background" fill="#0091FF"></path>
                <path d="M33,25.163026 C64.6544757,35.9485904 96.1609861,38.3704654 127.519531,32.428651 C150.443454,28.0850282 211.347651,15.539671 308.192736,23.9385987 C340.637789,26.7524086 399,41.8583385 471.766539,28.4860964 C501.539469,23.0147515 552.890625,23.0147515 620.414063,32.428651 C639.068745,35.0294265 645.359504,31.4244611 683.378906,28.4860964 C690.050031,27.9705122 714.412488,26.3821217 732.555854,29.4053864 C750.699219,32.428651 768.180718,16.1611827 772,25.163026 C780.090291,44.2314088 757.828763,68.7275127 756.375,85.5458385 C753.123704,123.159506 784.855469,54.413026 756.375,160.553651 C743.168649,209.770899 769.597011,242.816884 772,253.834901 C774.639379,265.9368 765.082835,279.833227 761.627721,302.122034 C757.003461,331.952953 747.265625,383.475526 761.627721,375.744193 C785.546875,375.744193 764.273193,543.975333 772,559.163026 C771.369824,570.008662 708.192187,568.063196 698.148438,567.975526 C628.015386,567.363345 615.15776,555.669802 573.912306,550.78291 C492.987032,541.194626 426.313799,552.413606 377.03125,559.163026 C254.527344,575.94037 69.9257813,575.94037 33,559.163026 C7.45538083,547.556749 19.294622,555.128194 20.5117188,523.03412 C21.6602715,492.747507 48.6484375,471.202089 37.7312989,434.401654 C21.420085,379.418403 40.6196937,349.017553 37.1302846,327.541932 C33,302.122034 33.1109086,282.29543 37.1302846,265.260128 C42.1835937,243.842714 34.8096467,218.981431 33,196.22162 C37.1302846,160.553651 58.6140534,203.348062 37.7312989,128.59662 C26.2515788,103.880474 24.6744792,69.4026094 33,25.163026 Z" id="Internal" fill="#B8E0FF"></path>
                <g id="Group" transform="translate(0.000000, 570.163026)">
                    <path d="M9.11230469,0.198242188 C9.11230469,4.44759115 9.11230469,6.57226563 9.11230469,6.57226563 C8.9938151,10.0078125 8.93457031,11.7255859 8.93457031,11.7255859 C8.54329427,16.2646484 8.34765625,18.5341797 8.34765625,18.5341797 C7.79882813,22.2568359 7.52441406,24.1181641 7.52441406,24.1181641 C6.58365885,27.8069661 6.11328125,29.6513672 6.11328125,29.6513672 C5.6875,32.0634766 5.47460938,33.2695313 5.47460938,33.2695313 C4.69921875,36.2454427 4.31152344,37.7333984 4.31152344,37.7333984 C3.69303385,40.9957682 3.38378906,42.6269531 3.38378906,42.6269531 C2.69433594,45.6458333 2.34960938,47.1552734 2.34960938,47.1552734 C1.7265625,50.7190755 1.41503906,52.5009766 1.41503906,52.5009766 C0.600585938,54.8616536 0.193359375,56.0419922 0.193359375,56.0419922 C0.064453125,58.7516276 0,60.1064453 0,60.1064453 C0.475911458,61.9007161 0.713867187,62.7978516 0.713867187,62.7978516 C1.79003906,64.273763 2.328125,65.0117188 2.328125,65.0117188 C3.65429688,66.1809896 4.31738281,66.765625 4.31738281,66.765625 C5.80110677,67.9309896 6.54296875,68.5136719 6.54296875,68.5136719 C7.99348958,69.3658854 8.71875,69.7919922 8.71875,69.7919922 C10.889974,69.8388672 11.9755859,69.8623047 11.9755859,69.8623047 C14.0686849,69.2236328 15.1152344,68.9042969 15.1152344,68.9042969 C17.0677083,67.9824219 18.0439453,67.5214844 18.0439453,67.5214844 C19.1350911,66.1588542 19.6806641,65.4775391 19.6806641,65.4775391 C20.913737,62.5478516 21.5302734,61.0830078 21.5302734,61.0830078 C22.1025391,59.3577474 22.3886719,58.4951172 22.3886719,58.4951172 C22.374349,55.8173828 22.3671875,54.4785156 22.3671875,54.4785156 C21.749349,52.1770833 21.4404297,51.0263672 21.4404297,51.0263672 C20.430013,48.9833984 19.9248047,47.9619141 19.9248047,47.9619141 C19.2906901,45.6943359 18.9736328,44.5605469 18.9736328,44.5605469 C18.0556641,42.5390625 17.5966797,41.5283203 17.5966797,41.5283203 C16.8369141,38.9039714 16.4570312,37.5917969 16.4570312,37.5917969 C15.7259115,34.6061198 15.3603516,33.1132812 15.3603516,33.1132812 C14.7718099,29.9609375 14.4775391,28.3847656 14.4775391,28.3847656 C13.7171224,23.2545573 13.3369141,20.6894531 13.3369141,20.6894531 C12.9013672,15.3841146 12.6835938,12.7314453 12.6835938,12.7314453 C12.4388021,5.8577474 12.3164062,2.42089844 12.3164062,2.42089844 L12.3164062,0 L9.11230469,0.198242188 Z" id="Path" fill="#0091FF"></path>
                    <path d="M7.42382812,61.125 C8.52832031,61.8977865 9.08056641,62.2841797 9.08056641,62.2841797 C9.96142578,62.5286458 10.4018555,62.6508789 10.4018555,62.6508789 C11.4357096,62.6746419 11.9526367,62.6865234 11.9526367,62.6865234 C13.0424805,62.2464193 13.5874023,62.0263672 13.5874023,62.0263672 C14.074056,62.5104167 14.3173828,62.7524414 14.3173828,62.7524414 C14.0449219,63.5887044 13.9086914,64.0068359 13.9086914,64.0068359 C12.9226888,64.6878255 12.4296875,65.0283203 12.4296875,65.0283203 C11.1155599,65.1009115 10.4584961,65.137207 10.4584961,65.137207 C9.25341797,64.6749674 8.65087891,64.4438477 8.65087891,64.4438477 C7.67236328,63.7683919 7.18310547,63.4306641 7.18310547,63.4306641 L6.85302734,62.1362305 C7.2335612,61.4620768 7.42382812,61.125 7.42382812,61.125 Z" id="Path-2" fill="#FFFFFF"></path>
                </g>
                <g id="Group-Copy" transform="translate(799.000000, 557.163026)">
                    <path d="M7.28984375,0.15859375 C7.28984375,3.55807292 7.28984375,5.2578125 7.28984375,5.2578125 C7.19505208,8.00625 7.14765625,9.38046875 7.14765625,9.38046875 C6.83463542,13.0117188 6.678125,14.8273438 6.678125,14.8273438 C6.2390625,17.8054687 6.01953125,19.2945312 6.01953125,19.2945312 C5.26692708,22.2455729 4.890625,23.7210938 4.890625,23.7210938 C4.55,25.6507813 4.3796875,26.615625 4.3796875,26.615625 C3.759375,28.9963542 3.44921875,30.1867188 3.44921875,30.1867188 C2.95442708,32.7966146 2.70703125,34.1015625 2.70703125,34.1015625 C2.15546875,36.5166667 1.8796875,37.7242188 1.8796875,37.7242188 C1.38125,40.5752604 1.13203125,42.0007813 1.13203125,42.0007813 C0.48046875,43.8893229 0.1546875,44.8335938 0.1546875,44.8335938 C0.0515625,47.0013021 0,48.0851563 0,48.0851563 C0.380729167,49.5205729 0.57109375,50.2382812 0.57109375,50.2382812 C1.43203125,51.4190104 1.8625,52.009375 1.8625,52.009375 C2.9234375,52.9447917 3.45390625,53.4125 3.45390625,53.4125 C4.64088542,54.3447917 5.234375,54.8109375 5.234375,54.8109375 C6.39479167,55.4927083 6.975,55.8335938 6.975,55.8335938 C8.71197917,55.8710938 9.58046875,55.8898438 9.58046875,55.8898438 C11.2549479,55.3789063 12.0921875,55.1234375 12.0921875,55.1234375 C13.6541667,54.3859375 14.4351563,54.0171875 14.4351563,54.0171875 C15.3080729,52.9270833 15.7445312,52.3820313 15.7445312,52.3820313 C16.7309896,50.0382813 17.2242187,48.8664063 17.2242187,48.8664063 C17.6820312,47.4861979 17.9109375,46.7960938 17.9109375,46.7960938 C17.8994792,44.6539063 17.89375,43.5828125 17.89375,43.5828125 C17.3994792,41.7416667 17.1523438,40.8210938 17.1523438,40.8210938 C16.3440104,39.1867188 15.9398438,38.3695313 15.9398438,38.3695313 C15.4325521,36.5554688 15.1789062,35.6484375 15.1789062,35.6484375 C14.4445312,34.03125 14.0773437,33.2226563 14.0773437,33.2226563 C13.4695312,31.1231771 13.165625,30.0734375 13.165625,30.0734375 C12.5807292,27.6848958 12.2882812,26.490625 12.2882812,26.490625 C11.8174479,23.96875 11.5820312,22.7078125 11.5820312,22.7078125 C10.9736979,18.6036458 10.6695313,16.5515625 10.6695313,16.5515625 C10.3210937,12.3072917 10.146875,10.1851563 10.146875,10.1851563 C9.95104167,4.68619792 9.853125,1.93671875 9.853125,1.93671875 L9.853125,0 L7.28984375,0.15859375 Z" id="Path" fill="#0091FF"></path>
                    <path d="M5.9390625,48.9 C6.82265625,49.5182292 7.26445313,49.8273438 7.26445313,49.8273438 C7.96914063,50.0229167 8.32148438,50.1207031 8.32148438,50.1207031 C9.14856771,50.1397135 9.56210938,50.1492188 9.56210938,50.1492188 C10.4339844,49.7971354 10.8699219,49.6210938 10.8699219,49.6210938 C11.2592448,50.0083333 11.4539063,50.2019531 11.4539063,50.2019531 C11.2359375,50.8709635 11.1269531,51.2054688 11.1269531,51.2054688 C10.338151,51.7502604 9.94375,52.0226563 9.94375,52.0226563 C8.89244792,52.0807292 8.36679688,52.1097656 8.36679688,52.1097656 C7.40273437,51.739974 6.92070313,51.5550781 6.92070313,51.5550781 C6.13789062,51.0147135 5.74648437,50.7445313 5.74648437,50.7445313 L5.48242188,49.7089844 C5.78684896,49.1696615 5.9390625,48.9 5.9390625,48.9 Z" id="Path-2" fill="#FFFFFF"></path>
                </g>
                <g id="Group-Copy-4" transform="translate(797.000000, 29.163026)">
                    <path d="M7.28984375,0.15859375 C7.28984375,3.55807292 7.28984375,5.2578125 7.28984375,5.2578125 C7.19505208,8.00625 7.14765625,9.38046875 7.14765625,9.38046875 C6.83463542,13.0117188 6.678125,14.8273438 6.678125,14.8273438 C6.2390625,17.8054687 6.01953125,19.2945312 6.01953125,19.2945312 C5.26692708,22.2455729 4.890625,23.7210938 4.890625,23.7210938 C4.55,25.6507813 4.3796875,26.615625 4.3796875,26.615625 C3.759375,28.9963542 3.44921875,30.1867188 3.44921875,30.1867188 C2.95442708,32.7966146 2.70703125,34.1015625 2.70703125,34.1015625 C2.15546875,36.5166667 1.8796875,37.7242188 1.8796875,37.7242188 C1.38125,40.5752604 1.13203125,42.0007813 1.13203125,42.0007813 C0.48046875,43.8893229 0.1546875,44.8335938 0.1546875,44.8335938 C0.0515625,47.0013021 0,48.0851563 0,48.0851563 C0.380729167,49.5205729 0.57109375,50.2382812 0.57109375,50.2382812 C1.43203125,51.4190104 1.8625,52.009375 1.8625,52.009375 C2.9234375,52.9447917 3.45390625,53.4125 3.45390625,53.4125 C4.64088542,54.3447917 5.234375,54.8109375 5.234375,54.8109375 C6.39479167,55.4927083 6.975,55.8335938 6.975,55.8335938 C8.71197917,55.8710938 9.58046875,55.8898438 9.58046875,55.8898438 C11.2549479,55.3789063 12.0921875,55.1234375 12.0921875,55.1234375 C13.6541667,54.3859375 14.4351563,54.0171875 14.4351563,54.0171875 C15.3080729,52.9270833 15.7445312,52.3820313 15.7445312,52.3820313 C16.7309896,50.0382813 17.2242187,48.8664063 17.2242187,48.8664063 C17.6820312,47.4861979 17.9109375,46.7960938 17.9109375,46.7960938 C17.8994792,44.6539063 17.89375,43.5828125 17.89375,43.5828125 C17.3994792,41.7416667 17.1523438,40.8210938 17.1523438,40.8210938 C16.3440104,39.1867188 15.9398438,38.3695313 15.9398438,38.3695313 C15.4325521,36.5554688 15.1789062,35.6484375 15.1789062,35.6484375 C14.4445312,34.03125 14.0773437,33.2226563 14.0773437,33.2226563 C13.4695312,31.1231771 13.165625,30.0734375 13.165625,30.0734375 C12.5807292,27.6848958 12.2882812,26.490625 12.2882812,26.490625 C11.8174479,23.96875 11.5820312,22.7078125 11.5820312,22.7078125 C10.9736979,18.6036458 10.6695313,16.5515625 10.6695313,16.5515625 C10.3210937,12.3072917 10.146875,10.1851563 10.146875,10.1851563 C9.95104167,4.68619792 9.853125,1.93671875 9.853125,1.93671875 L9.853125,0 L7.28984375,0.15859375 Z" id="Path" fill="#0091FF"></path>
                    <path d="M5.9390625,48.9 C6.82265625,49.5182292 7.26445313,49.8273438 7.26445313,49.8273438 C7.96914063,50.0229167 8.32148438,50.1207031 8.32148438,50.1207031 C9.14856771,50.1397135 9.56210938,50.1492188 9.56210938,50.1492188 C10.4339844,49.7971354 10.8699219,49.6210938 10.8699219,49.6210938 C11.2592448,50.0083333 11.4539063,50.2019531 11.4539063,50.2019531 C11.2359375,50.8709635 11.1269531,51.2054688 11.1269531,51.2054688 C10.338151,51.7502604 9.94375,52.0226563 9.94375,52.0226563 C8.89244792,52.0807292 8.36679688,52.1097656 8.36679688,52.1097656 C7.40273437,51.739974 6.92070313,51.5550781 6.92070313,51.5550781 C6.13789062,51.0147135 5.74648437,50.7445313 5.74648437,50.7445313 L5.48242188,49.7089844 C5.78684896,49.1696615 5.9390625,48.9 5.9390625,48.9 Z" id="Path-2" fill="#FFFFFF"></path>
                </g>
                <g id="Group-Copy-2" transform="translate(42.000000, 171.163026)">
                    <path d="M3.64492188,0.079296875 C3.64492188,1.77903646 3.64492188,2.62890625 3.64492188,2.62890625 C3.59752604,4.003125 3.57382813,4.69023438 3.57382813,4.69023438 C3.41731771,6.50585938 3.3390625,7.41367188 3.3390625,7.41367188 C3.11953125,8.90273437 3.00976563,9.64726562 3.00976563,9.64726562 C2.63346354,11.1227865 2.4453125,11.8605469 2.4453125,11.8605469 C2.275,12.8253906 2.18984375,13.3078125 2.18984375,13.3078125 C1.8796875,14.4981771 1.72460938,15.0933594 1.72460938,15.0933594 C1.47721354,16.3983073 1.35351563,17.0507813 1.35351563,17.0507813 C1.07773438,18.2583333 0.93984375,18.8621094 0.93984375,18.8621094 C0.690625,20.2876302 0.566015625,21.0003906 0.566015625,21.0003906 C0.240234375,21.9446615 0.07734375,22.4167969 0.07734375,22.4167969 C0.02578125,23.500651 0,24.0425781 0,24.0425781 C0.190364583,24.7602865 0.285546875,25.1191406 0.285546875,25.1191406 C0.716015625,25.7095052 0.93125,26.0046875 0.93125,26.0046875 C1.46171875,26.4723958 1.72695312,26.70625 1.72695312,26.70625 C2.32044271,27.1723958 2.6171875,27.4054688 2.6171875,27.4054688 C3.19739583,27.7463542 3.4875,27.9167969 3.4875,27.9167969 C4.35598958,27.9355469 4.79023437,27.9449219 4.79023437,27.9449219 C5.62747396,27.6894531 6.04609375,27.5617188 6.04609375,27.5617188 C6.82708333,27.1929688 7.21757813,27.0085938 7.21757813,27.0085938 C7.65403646,26.4635417 7.87226562,26.1910156 7.87226562,26.1910156 C8.36549479,25.0191406 8.61210937,24.4332031 8.61210937,24.4332031 C8.84101562,23.743099 8.95546875,23.3980469 8.95546875,23.3980469 C8.94973958,22.3269531 8.946875,21.7914063 8.946875,21.7914063 C8.69973958,20.8708333 8.57617188,20.4105469 8.57617188,20.4105469 C8.17200521,19.5933594 7.96992188,19.1847656 7.96992188,19.1847656 C7.71627604,18.2777344 7.58945312,17.8242188 7.58945312,17.8242188 C7.22226562,17.015625 7.03867187,16.6113281 7.03867187,16.6113281 C6.73476562,15.5615885 6.5828125,15.0367188 6.5828125,15.0367188 C6.29036458,13.8424479 6.14414062,13.2453125 6.14414062,13.2453125 C5.90872396,11.984375 5.79101562,11.3539063 5.79101562,11.3539063 C5.48684896,9.30182292 5.33476563,8.27578125 5.33476563,8.27578125 C5.16054687,6.15364583 5.0734375,5.09257813 5.0734375,5.09257813 C4.97552083,2.34309896 4.9265625,0.968359375 4.9265625,0.968359375 L4.9265625,0 L3.64492188,0.079296875 Z" id="Path" fill="#0091FF"></path>
                    <path d="M2.96953125,24.45 C3.41132813,24.7591146 3.63222656,24.9136719 3.63222656,24.9136719 C3.98457031,25.0114583 4.16074219,25.0603516 4.16074219,25.0603516 C4.57428385,25.0698568 4.78105469,25.0746094 4.78105469,25.0746094 C5.21699219,24.8985677 5.43496094,24.8105469 5.43496094,24.8105469 C5.6296224,25.0041667 5.72695313,25.1009766 5.72695313,25.1009766 C5.61796875,25.4354818 5.56347656,25.6027344 5.56347656,25.6027344 C5.16907552,25.8751302 4.971875,26.0113281 4.971875,26.0113281 C4.44622396,26.0403646 4.18339844,26.0548828 4.18339844,26.0548828 C3.70136719,25.869987 3.46035156,25.7775391 3.46035156,25.7775391 C3.06894531,25.5073568 2.87324219,25.3722656 2.87324219,25.3722656 L2.74121094,24.8544922 C2.89342448,24.5848307 2.96953125,24.45 2.96953125,24.45 Z" id="Path-2" fill="#FFFFFF"></path>
                </g>
                <g id="Group-Copy-3" transform="translate(753.000000, 370.163026)">
                    <path d="M3.64492188,0.079296875 C3.64492188,1.77903646 3.64492188,2.62890625 3.64492188,2.62890625 C3.59752604,4.003125 3.57382813,4.69023438 3.57382813,4.69023438 C3.41731771,6.50585938 3.3390625,7.41367188 3.3390625,7.41367188 C3.11953125,8.90273437 3.00976563,9.64726562 3.00976563,9.64726562 C2.63346354,11.1227865 2.4453125,11.8605469 2.4453125,11.8605469 C2.275,12.8253906 2.18984375,13.3078125 2.18984375,13.3078125 C1.8796875,14.4981771 1.72460938,15.0933594 1.72460938,15.0933594 C1.47721354,16.3983073 1.35351563,17.0507813 1.35351563,17.0507813 C1.07773438,18.2583333 0.93984375,18.8621094 0.93984375,18.8621094 C0.690625,20.2876302 0.566015625,21.0003906 0.566015625,21.0003906 C0.240234375,21.9446615 0.07734375,22.4167969 0.07734375,22.4167969 C0.02578125,23.500651 0,24.0425781 0,24.0425781 C0.190364583,24.7602865 0.285546875,25.1191406 0.285546875,25.1191406 C0.716015625,25.7095052 0.93125,26.0046875 0.93125,26.0046875 C1.46171875,26.4723958 1.72695312,26.70625 1.72695312,26.70625 C2.32044271,27.1723958 2.6171875,27.4054688 2.6171875,27.4054688 C3.19739583,27.7463542 3.4875,27.9167969 3.4875,27.9167969 C4.35598958,27.9355469 4.79023437,27.9449219 4.79023437,27.9449219 C5.62747396,27.6894531 6.04609375,27.5617188 6.04609375,27.5617188 C6.82708333,27.1929688 7.21757813,27.0085938 7.21757813,27.0085938 C7.65403646,26.4635417 7.87226562,26.1910156 7.87226562,26.1910156 C8.36549479,25.0191406 8.61210937,24.4332031 8.61210937,24.4332031 C8.84101562,23.743099 8.95546875,23.3980469 8.95546875,23.3980469 C8.94973958,22.3269531 8.946875,21.7914063 8.946875,21.7914063 C8.69973958,20.8708333 8.57617188,20.4105469 8.57617188,20.4105469 C8.17200521,19.5933594 7.96992188,19.1847656 7.96992188,19.1847656 C7.71627604,18.2777344 7.58945312,17.8242188 7.58945312,17.8242188 C7.22226562,17.015625 7.03867187,16.6113281 7.03867187,16.6113281 C6.73476562,15.5615885 6.5828125,15.0367188 6.5828125,15.0367188 C6.29036458,13.8424479 6.14414062,13.2453125 6.14414062,13.2453125 C5.90872396,11.984375 5.79101562,11.3539063 5.79101562,11.3539063 C5.48684896,9.30182292 5.33476563,8.27578125 5.33476563,8.27578125 C5.16054687,6.15364583 5.0734375,5.09257813 5.0734375,5.09257813 C4.97552083,2.34309896 4.9265625,0.968359375 4.9265625,0.968359375 L4.9265625,0 L3.64492188,0.079296875 Z" id="Path" fill="#0091FF"></path>
                    <path d="M2.96953125,24.45 C3.41132813,24.7591146 3.63222656,24.9136719 3.63222656,24.9136719 C3.98457031,25.0114583 4.16074219,25.0603516 4.16074219,25.0603516 C4.57428385,25.0698568 4.78105469,25.0746094 4.78105469,25.0746094 C5.21699219,24.8985677 5.43496094,24.8105469 5.43496094,24.8105469 C5.6296224,25.0041667 5.72695313,25.1009766 5.72695313,25.1009766 C5.61796875,25.4354818 5.56347656,25.6027344 5.56347656,25.6027344 C5.16907552,25.8751302 4.971875,26.0113281 4.971875,26.0113281 C4.44622396,26.0403646 4.18339844,26.0548828 4.18339844,26.0548828 C3.70136719,25.869987 3.46035156,25.7775391 3.46035156,25.7775391 C3.06894531,25.5073568 2.87324219,25.3722656 2.87324219,25.3722656 L2.74121094,24.8544922 C2.89342448,24.5848307 2.96953125,24.45 2.96953125,24.45 Z" id="Path-2" fill="#FFFFFF"></path>
                </g>
            </g>
        </g>
    </g>
</svg>