<?xml version="1.0" encoding="UTF-8"?>
<svg width="670px" height="429px" viewBox="0 0 670 429" version="1.1" xmlns="http://www.w3.org/2000/svg" xmlns:xlink="http://www.w3.org/1999/xlink">
    <!-- Generator: Sketch 56 (81588) - https://sketch.com -->
    <title>Areas</title>
    <desc>Created with Sketch.</desc>
    <g id="Page-1" stroke="none" stroke-width="1" fill="none" fill-rule="evenodd">
        <g id="Desktop" transform="translate(-176.000000, -317.000000)" stroke="#979797">
            <g id="Areas" transform="translate(177.376953, 318.402344)">
                <path d="M430.224609,105.316406 L224.010254,318.042969 L509.791016,426.144531 L559.208984,342.578125 C575.386068,348.138021 583.474609,350.917969 583.474609,350.917969 L581.232422,394.902344 L667.462891,238.578125 L648.848633,233.232422 L652.349609,191.382812 L667.462891,169.483398 L430.224609,105.316406 Z" id="Entrance-Area" fill="#F7B500"></path>
                <polygon id="Start" fill="#6DD400" points="16.2910156 164.265625 107.441406 160.396484 118.892578 152.033203 248.183594 193.597656 288.771484 155.150391 359.6875 177.962891 224.010254 318.042969 2.84217094e-14 235.038086"></polygon>
                <polygon id="Gift-Shop" fill="#FF00FE" points="430.224609 105.316406 359.6875 177.962891 289.731445 155.462891 289.731445 144.869141 266.950195 139.430605 266.950195 130.140137 244.74707 123.486328 244.74707 114.001953 228.435547 109.751953 228.435547 100.158203 209.967773 95.0126953 209.967773 85.3129883 189.443359 80.4970703 189.443359 69.3564453 173.643555 66.9472656 172.207031 56.3271484 155.253906 53.0244141 111.615234 85.2635531 118.892578 152.033203 107.353516 160.776826 16.2338867 163.34082 50.2382812 11.2617187 308.810547 2.46973123e-15 461.802734 37.2265625 430.224609 69.1289062"></polygon>
            </g>
        </g>
    </g>
</svg>