<?xml version="1.0" encoding="UTF-8"?>
<svg width="180px" height="143px" viewBox="0 0 180 143" version="1.1" xmlns="http://www.w3.org/2000/svg" xmlns:xlink="http://www.w3.org/1999/xlink">
    <!-- Generator: Sketch 56 (81588) - https://sketch.com -->
    <title>Stairs</title>
    <desc>Created with Sketch.</desc>
    <g id="Page-1" stroke="none" stroke-width="1" fill="none" fill-rule="evenodd">
        <g id="Desktop" transform="translate(-287.000000, -370.000000)" fill="#6DD400" stroke="#979797">
            <g id="Stairs" transform="translate(288.108398, 371.426758)">
                <polygon id="Stairs-Side" points="9.12304687 99.4335938 137.452148 140.573242 137.452148 129.098633 115.353516 121.788086 114.969727 113.905273 92.5419922 107.06543 92.5419922 97.5039063 74.5273438 92.2871094 74.5273438 82.3447266 55.5292969 77.1484375 55.5292969 67.1152344 34.0556641 61.2158203 32.5566406 50.6542969 17.6328125 47.2333984 16.015625 36.1894531 -1.42108547e-14 32.2392578"></polygon>
                <polygon id="Stair-1" points="137.452148 141.073242 178.040039 102.125977 178.040039 91.8447266 137.452148 129.098633"></polygon>
                <polygon id="Stair-1-top" points="178.040039 91.8447266 156.21875 86.4061906 115.353516 121.788086 137.452148 129.098633"></polygon>
                <polygon id="Stair-2" points="115.353516 113.228516 115.353516 121.788086 156.21875 86.4061906 156.21875 77.3330078"></polygon>
                <polygon id="Stair-2-top" points="115.353516 113.228516 92.5419922 107.06543 135.786133 70.4619141 154.785156 77.3330078"></polygon>
                <polygon id="Stair-3" points="92.5419922 107.06543 92.5419922 96.1337891 134.015625 60.9775391 134.015625 70.4619141"></polygon>
                <polygon id="Stair-3-top" points="75.0791016 91.8452148 92.5419922 97.5039063 134.015625 60.9775391 117.704102 56.7275391"></polygon>
                <polygon id="Stair-4" points="74.5273438 82.3447266 75.0791016 91.8452148 117.704102 56.7275391 117.704102 46.6357422"></polygon>
                <polygon id="Stair-4-top" points="55.6054688 77.1157227 74.5273438 82.3447266 117.704102 46.6357422 99.2363281 41.9882813"></polygon>
                <polygon id="Stair-5" points="55.6054688 66.7949219 55.6054688 77.1157227 99.2363281 41.9882813 99.2363281 32.239139"></polygon>
                <polygon id="Stair-5-top" points="32.5566406 60.9775391 55.6054687 66.7949219 99.2363281 32.239139 78.7119141 27.4726562"></polygon>
                <polygon id="Stair-6" points="32.5566406 50.6542969 32.5566406 60.9775391 77.4208984 27.4726563 77.4208984 16.3320313"></polygon>
                <polygon id="Stair-6-top" points="18.2470703 46.6357422 32.5566406 50.6542969 77.4208984 16.3320312 62.9121094 13.9228516"></polygon>
                <polygon id="Stair-7" points="16.015625 36.1894531 18.2470703 46.6357422 61.4755859 13.9228516 61.4755859 3.30273437"></polygon>
                <polygon id="Stair-7-top" points="-3.55271368e-15 32.239139 16.015625 36.1894531 61.4755859 3.30273438 44.5224609 1.0658141e-14"></polygon>
            </g>
        </g>
    </g>
</svg>