<?xml version="1.0" encoding="UTF-8"?>
<svg width="751px" height="515px" viewBox="0 0 751 515" version="1.1" xmlns="http://www.w3.org/2000/svg" xmlns:xlink="http://www.w3.org/1999/xlink">
    <!-- Generator: Sketch 56 (81588) - https://sketch.com -->
    <title>Walls</title>
    <desc>Created with Sketch.</desc>
    <g id="Page-1" stroke="none" stroke-width="1" fill="none" fill-rule="evenodd">
        <g id="Desktop" transform="translate(-143.000000, -274.000000)" fill="#B620E0" stroke="#979797">
            <g id="Walls" transform="translate(143.921875, 275.023438)">
                <path d="M705.871094,244.355469 L748.769531,171.386719 L498.207031,106.488281 L553.308594,48.703125 L349.984375,0 L59.5527344,10.9179687 L0,255.71875 L572.03125,469.523438 L616.929688,394.296875 L592.664063,385.957031 L562.351563,437.714844 L24.9296875,244.355469 C58.9765625,95.6679687 76,21.3242187 76,21.3242187 C252.835938,14.3867187 341.253906,10.9179687 341.253906,10.9179687 L521.964844,53.5273437 L463.679688,112.507812 L719.230469,180.03125 L684.578125,238.40332 L705.871094,244.355469 Z" id="Wall-Top"></path>
                <polygon id="Lower-Wall" points="0 255.71875 3.66015625 293.488281 569.414062 511.484375 572.03125 469.523437"></polygon>
                <path d="M572.03125,469.523438 C601.963542,419.372396 616.929688,394.296875 616.929688,394.296875 C615.434896,423.619792 614.6875,438.28125 614.6875,438.28125 L570.164062,513.082031 L572.03125,469.523438 Z" id="Entrance-Wall"></path>
                <path d="M748.769531,171.386719 L743.699219,209.515625 L700.917969,281.957031 L705.871094,244.355469 C734.470052,195.709635 748.769531,171.386719 748.769531,171.386719 Z" id="Top-Entrance-Wall"></path>
                <polygon id="Entrance-Side-Wall" points="705.871094 244.355469 684.578125 238.40332 682.303711 276.611328 700.917969 281.957031"></polygon>
                <polygon id="Internal-Wall-Entrance" points="463.679688 112.507812 463.679688 148.695312 700.917969 212.862305 719.230469 180.03125"></polygon>
                <polygon id="Top-External-Wall" points="553.308594 48.703125 553.308594 80.6054688 523.470703 112.507813 498.207031 106.488281"></polygon>
                <path d="M521.964844,53.5273438 C401.490885,25.1210938 341.253906,10.9179688 341.253906,10.9179688 L342.265625,43.3789062 L495.257812,80.6054688 L521.964844,53.5273438 Z" id="Internal-Top-Gift"></path>
                <polygon id="Internal-Mid-Gift" points="341.253906 10.9179687 342.265625 43.3789063 83.6933594 54.640625 76 21.3242188"></polygon>
                <polygon id="Internal-Left-Gift" points="76 21.3242188 41.890625 173.148438 49.7460938 207.644531 83.6933594 54.640625"></polygon>
                <polygon id="Start-Internal-Wall" points="41.3326467 173.148438 48.9296875 207.723172 40.4550781 250.169922 24.9296875 244.5178"></polygon>
            </g>
        </g>
    </g>
</svg>